{"title":"Birdman Ft. Lil Wayne &amp; Mack Maine - Dark Shades [Explicit] ","uid":8923961,"size":121385754,"categoryP":"video","categoryS":"music_videos","magnet":"?xt=urn:btih:6f4006e1accd74f3d06c39e727648b06f4da30ce&amp;dn=Birdman+Ft.+Lil+Wayne+%26amp%3B+Mack+Maine+-+Dark+Shades+%5BExplicit%5D+&amp;tr=udp%3A%2F%2Ftracker.openbittorrent.com%3A80&amp;tr=udp%3A%2F%2Fopen.demonii.com%3A1337&amp;tr=udp%3A%2F%2Ftracker.coppersurfer.tk%3A6969&amp;tr=udp%3A%2F%2Fexodus.desync.com%3A6969","seeders":2,"leechers":0,"uploader":"Sbyky","files":1,"time":1379322274,"description":"[IMG]http://cdn.piczend.com/images/vyBLcwJX/1379313611_dark%20shades.jpg[/IMG]\n\nGeneral\nComplete name                            : Birdman Ft. Lil Wayne &amp; Mack Maine - Dark Shades [Explicit] 720p [Sbyky].mp4\nFormat                                   : MPEG-4\nFormat profile                           : Base Media / Version 2\nCodec ID                                 : mp42\nFile size                                : 116 MiB\nDuration                                 : 5mn 13s\nOverall bit rate mode                    : Variable\nOverall bit rate                         : 3 093 Kbps\nEncoded date                             : UTC 2013-06-13 09:06:01\nTagged date                              : UTC 2013-06-13 09:06:01\n\nVideo\nID                                       : 1\nFormat                                   : AVC\nFormat/Info                              : Advanced Video Codec\nFormat profile                           : &lt;a class=&quot;__cf_email__&quot; href=&quot;/cdn-cgi/l/email-protection&quot; data-cfemail=&quot;7139181619313d425f40&quot;&gt;[email&amp;#160;protected]&lt;/a&gt;&lt;script cf-hash='f9e31' type=&quot;text/javascript&quot;&gt;\n/* &lt;![CDATA[ */!function(){try{var t=&quot;currentScript&quot;in document?document.currentScript:function(){for(var t=document.getElementsByTagName(&quot;script&quot;),e=t.length;e--;)if(t[e].getAttribute(&quot;cf-hash&quot;))return t[e]}();if(t&amp;&amp;t.previousSibling){var e,r,n,i,c=t.previousSibling,a=c.getAttribute(&quot;data-cfemail&quot;);if(a){for(e=&quot;&quot;,r=parseInt(a.substr(0,2),16),n=2;a.length-n;n+=2)i=parseInt(a.substr(n,2),16)^r,e+=String.fromCharCode(i);e=document.createTextNode(e),c.parentNode.replaceChild(e,c)}}}catch(u){}}();/* ]]&gt; */&lt;/script&gt;\nFormat settings, CABAC                   : Yes\nFormat settings, ReFrames                : 1 frame\nCodec ID                                 : avc1\nCodec ID/Info                            : Advanced Video Coding\nDuration                                 : 5mn 13s\nBit rate                                 : 2 899 Kbps\nMaximum bit rate                         : 6 316 Kbps\nWidth                                    : 1 280 pixels\nHeight                                   : 720 pixels\nDisplay aspect ratio                     : 16:9\nFrame rate mode                          : Constant\nFrame rate                               : 24.000 fps\nColor space                              : YUV\nChroma subsampling                       : 4:2:0\nBit depth                                : 8 bits\nScan type                                : Progressive\nBits/(Pixel*Frame)                       : 0.131\nStream size                              : 108 MiB (94%)\nTagged date                              : UTC 2013-06-13 09:06:06\n\nAudio\nID                                       : 2\nFormat                                   : AAC\nFormat/Info                              : Advanced Audio Codec\nFormat profile                           : LC\nCodec ID                                 : 40\nDuration                                 : 5mn 13s\nBit rate mode                            : Variable\nBit rate                                 : 192 Kbps\nMaximum bit rate                         : 203 Kbps\nChannel(s)                               : 2 channels\nChannel positions                        : Front: L R\nSampling rate                            : 44.1 KHz\nCompression mode                         : Lossy\nStream size                              : 7.19 MiB (6%)\nTitle                                    : IsoMedia File Produced by Google, 5-11-2011\nEncoded date                             : UTC 2013-06-13 09:06:05\nTagged date                              : UTC 2013-06-13 09:06:06\n\nShared By Sbyky\n[IMG]http://cdn.piczend.com/images/liRi6Opy/1379259598_say%20thanks%20preaching%201.gif[/IMG]\n[IMG]http://cdn.piczend.com/images/HVuSYSI4/1379259626_seeding%20preaching%201.gif[/IMG]","torrent":{"xt":"urn:btih:6f4006e1accd74f3d06c39e727648b06f4da30ce","amp;dn":"Birdman+Ft.+Lil+Wayne+%26amp%3B+Mack+Maine+-+Dark+Shades+%5BExplicit%5D+","amp;tr":["udp%3A%2F%2Ftracker.openbittorrent.com%3A80","udp%3A%2F%2Fopen.demonii.com%3A1337","udp%3A%2F%2Ftracker.coppersurfer.tk%3A6969","udp%3A%2F%2Fexodus.desync.com%3A6969"],"infoHash":"6f4006e1accd74f3d06c39e727648b06f4da30ce","infoHashBuffer":{"type":"Buffer","data":[111,64,6,225,172,205,116,243,208,108,57,231,39,100,139,6,244,218,48,206]},"announce":[],"urlList":[]}}